<svg width="120" height="120" viewBox="0 0 120 120" xmlns="http://www.w3.org/2000/svg">
  <!-- Background circle -->
  <circle cx="60" cy="60" r="58" fill="#1a1a2e" stroke="#0f4c75" stroke-width="2"/>
  
  <!-- Inner glow -->
  <circle cx="60" cy="60" r="54" fill="url(#glow)" opacity="0.3"/>
  
  <!-- Character silhouette -->
  <g transform="translate(60, 60)">
    <!-- Head -->
    <ellipse cx="0" cy="-10" rx="22" ry="26" fill="#8B6B47"/>
    
    <!-- Hair (natural textured style) -->
    <path d="M -25 -35 Q -28 -42 -22 -45 Q -15 -48 0 -47 Q 15 -48 22 -45 Q 28 -42 25 -35 L 24 -25 Q 23 -20 20 -18 L 18 -15 Q 15 -12 12 -10 L 10 -8 Q 8 -6 5 -5 L -5 -5 Q -8 -6 -10 -8 L -12 -10 Q -15 -12 -18 -15 L -20 -18 Q -23 -20 -24 -25 Z" 
          fill="#2C1810" stroke="#1a0a05" stroke-width="0.5"/>
    
    <!-- Hair texture detail -->
    <path d="M -20 -38 Q -18 -40 -15 -39 M -10 -42 Q -8 -44 -5 -43 M 5 -43 Q 8 -44 10 -42 M 15 -39 Q 18 -40 20 -38" 
          stroke="#1a0a05" stroke-width="0.8" fill="none" opacity="0.5"/>
    
    <!-- Face features -->
    <ellipse cx="-8" cy="-10" rx="3" ry="2" fill="#2C1810"/> <!-- Left eye -->
    <ellipse cx="8" cy="-10" rx="3" ry="2" fill="#2C1810"/> <!-- Right eye -->
    <path d="M -5 -2 Q 0 1 5 -2" stroke="#5C4033" stroke-width="1.5" fill="none"/> <!-- Smile -->
    
    <!-- Cheek highlight -->
    <circle cx="-12" cy="-5" r="3" fill="#A0826D" opacity="0.3"/>
    <circle cx="12" cy="-5" r="3" fill="#A0826D" opacity="0.3"/>
    
    <!-- Professional attire collar -->
    <path d="M -22 15 L -22 5 Q -22 0 -18 -2 L -8 -5 L 8 -5 L 18 -2 Q 22 0 22 5 L 22 15" 
          fill="#3282b8"/>
    
    <!-- Lapels -->
    <path d="M -22 15 L -15 5 L -8 0 M 22 15 L 15 5 L 8 0" 
          stroke="#1a1a2e" stroke-width="2" fill="none"/>
    
    <!-- Necklace detail -->
    <path d="M -10 0 Q 0 2 10 0" stroke="#D4AF37" stroke-width="1" fill="none"/>
    <circle cx="0" cy="2" r="2" fill="#D4AF37"/>
  </g>
  
  <!-- Professional badge/pin -->
  <circle cx="75" cy="75" r="4" fill="#bbe1fa" stroke="#0f4c75" stroke-width="1"/>
  
  <!-- Gradient definitions -->
  <defs>
    <radialGradient id="glow">
      <stop offset="0%" stop-color="#3282b8" stop-opacity="0.5"/>
      <stop offset="100%" stop-color="#0f4c75" stop-opacity="0"/>
    </radialGradient>
  </defs>
</svg>