<svg width="120" height="120" viewBox="0 0 120 120" xmlns="http://www.w3.org/2000/svg">
  <!-- Background circle -->
  <circle cx="60" cy="60" r="58" fill="#1a1a2e" stroke="#0f4c75" stroke-width="2"/>
  
  <!-- Inner glow -->
  <circle cx="60" cy="60" r="54" fill="url(#glow)" opacity="0.3"/>
  
  <!-- Character -->
  <g transform="translate(60, 60)">
    <!-- Neck -->
    <rect x="-8" y="10" width="16" height="10" fill="#8B6B47"/>
    
    <!-- Head/Face - Main brown skin tone -->
    <ellipse cx="0" cy="-10" rx="22" ry="26" fill="#8B6B47"/>
    
    <!-- Hair (natural African American style) -->
    <path d="M -25 -36 C -25 -44, -20 -48, 0 -47 C 20 -48, 25 -44, 25 -36 L 24 -25 C 23 -20, 20 -18, 18 -15 L 15 -10 C 12 -6, 8 -4, 0 -3 C -8 -4, -12 -6, -15 -10 L -18 -15 C -20 -18, -23 -20, -24 -25 Z" 
          fill="#1C0F08"/>
    
    <!-- Hair detail/edges -->
    <path d="M -23 -38 C -21 -40, -18 -39, -15 -38 M -10 -42 C -8 -44, -5 -43, -2 -42 M 2 -42 C 5 -43, 8 -44, 10 -42 M 15 -38 C 18 -39, 21 -40, 23 -38" 
          stroke="#0A0604" stroke-width="1" fill="none"/>
    
    <!-- Eyes -->
    <ellipse cx="-8" cy="-12" rx="4" ry="3" fill="#FFFFFF"/>
    <ellipse cx="8" cy="-12" rx="4" ry="3" fill="#FFFFFF"/>
    <circle cx="-8" cy="-12" r="2" fill="#2C1810"/>
    <circle cx="8" cy="-12" r="2" fill="#2C1810"/>
    
    <!-- Eyebrows -->
    <path d="M -12 -18 C -10 -19, -6 -19, -4 -18" stroke="#1C0F08" stroke-width="1.5" fill="none"/>
    <path d="M 4 -18 C 6 -19, 10 -19, 12 -18" stroke="#1C0F08" stroke-width="1.5" fill="none"/>
    
    <!-- Nose -->
    <path d="M -2 -8 C -2 -6, -1 -4, 0 -4 C 1 -4, 2 -6, 2 -8" 
          stroke="#6B4E3D" stroke-width="1" fill="none"/>
    
    <!-- Smile -->
    <path d="M -6 -1 C -4 2, 4 2, 6 -1" 
          stroke="#6B4E3D" stroke-width="1.5" fill="none"/>
    
    <!-- Professional blazer -->
    <path d="M -22 20 L -22 8 C -22 2, -18 -1, -10 -3 L 10 -3 C 18 -1, 22 2, 22 8 L 22 20" 
          fill="#3282b8"/>
    
    <!-- Blazer collar/lapels -->
    <path d="M -22 20 L -15 8 L -8 2 M 22 20 L 15 8 L 8 2" 
          stroke="#1a1a2e" stroke-width="2" fill="none"/>
    
    <!-- White shirt collar -->
    <path d="M -10 2 L -10 -2 L 0 -3 L 10 -2 L 10 2" 
          fill="#FFFFFF" stroke="#E0E0E0" stroke-width="0.5"/>
    
    <!-- Gold necklace -->
    <ellipse cx="0" cy="4" rx="8" ry="3" fill="none" stroke="#D4AF37" stroke-width="1"/>
    <circle cx="0" cy="7" r="2" fill="#D4AF37"/>
  </g>
  
  <!-- Name badge -->
  <rect x="70" y="70" width="10" height="10" rx="2" fill="#bbe1fa" stroke="#0f4c75" stroke-width="1"/>
  
  <!-- Gradient definitions -->
  <defs>
    <radialGradient id="glow">
      <stop offset="0%" stop-color="#3282b8" stop-opacity="0.5"/>
      <stop offset="100%" stop-color="#0f4c75" stop-opacity="0"/>
    </radialGradient>
  </defs>
</svg>