<svg width="200" height="200" viewBox="0 0 200 200" xmlns="http://www.w3.org/2000/svg">
  <defs>
    <linearGradient id="bgGradient" x1="0%" y1="0%" x2="100%" y2="100%">
      <stop offset="0%" style="stop-color:#e0e5eb;stop-opacity:1" />
      <stop offset="100%" style="stop-color:#cbd2d9;stop-opacity:1" />
    </linearGradient>
    <radialGradient id="skinGradient">
      <stop offset="0%" style="stop-color:#f4d1c1;stop-opacity:1" />
      <stop offset="100%" style="stop-color:#e5b5a0;stop-opacity:1" />
    </radialGradient>
    <filter id="soften">
      <feGaussianBlur stdDeviation="0.5"/>
    </filter>
  </defs>
  
  <!-- Background circle -->
  <circle cx="100" cy="100" r="98" fill="url(#bgGradient)" stroke="#d0d5db" stroke-width="2"/>
  
  <!-- Neck -->
  <ellipse cx="100" cy="160" rx="35" ry="40" fill="url(#skinGradient)"/>
  
  <!-- Shirt collar -->
  <path d="M 65 165 Q 100 180 135 165 L 135 200 L 65 200 Z" fill="#1a365d"/>
  <path d="M 75 170 L 100 185 L 125 170" fill="none" stroke="#0f2543" stroke-width="2"/>
  
  <!-- Head shape -->
  <ellipse cx="100" cy="90" rx="50" ry="60" fill="url(#skinGradient)"/>
  
  <!-- Hair -->
  <path d="M 50 70 Q 50 40 100 35 Q 150 40 150 70 Q 145 50 100 55 Q 55 50 50 70" fill="#4a3426"/>
  <path d="M 55 65 Q 60 45 90 42 Q 85 48 70 55" fill="#4a3426" opacity="0.8"/>
  <path d="M 145 65 Q 140 45 110 42 Q 115 48 130 55" fill="#4a3426" opacity="0.8"/>
  
  <!-- Beard -->
  <path d="M 65 100 Q 65 130 100 135 Q 135 130 135 100 Q 130 125 100 130 Q 70 125 65 100" 
        fill="#3d2f1f" opacity="0.7" filter="url(#soften)"/>
  <path d="M 75 110 Q 80 115 100 117 Q 120 115 125 110" 
        fill="none" stroke="#3d2f1f" stroke-width="1" opacity="0.5"/>
  
  <!-- Eyes -->
  <ellipse cx="80" cy="85" rx="8" ry="6" fill="#2c5282"/>
  <ellipse cx="120" cy="85" rx="8" ry="6" fill="#2c5282"/>
  <circle cx="82" cy="84" r="2" fill="#1a365d"/>
  <circle cx="118" cy="84" r="2" fill="#1a365d"/>
  <circle cx="83" cy="83" r="1" fill="white" opacity="0.8"/>
  <circle cx="119" cy="83" r="1" fill="white" opacity="0.8"/>
  
  <!-- Eyebrows -->
  <path d="M 70 78 Q 80 75 90 78" fill="none" stroke="#4a3426" stroke-width="2.5" stroke-linecap="round"/>
  <path d="M 110 78 Q 120 75 130 78" fill="none" stroke="#4a3426" stroke-width="2.5" stroke-linecap="round"/>
  
  <!-- Nose -->
  <path d="M 100 90 L 95 105 Q 100 108 105 105 L 100 90" fill="#d4a594" opacity="0.5"/>
  
  <!-- Smile -->
  <path d="M 80 115 Q 100 125 120 115" fill="none" stroke="#8b5a3c" stroke-width="2" stroke-linecap="round"/>
  
  <!-- Smile lines -->
  <path d="M 70 110 Q 75 115 75 120" fill="none" stroke="#d4a594" stroke-width="1" opacity="0.5"/>
  <path d="M 130 110 Q 125 115 125 120" fill="none" stroke="#d4a594" stroke-width="1" opacity="0.5"/>
  
  <!-- Light reflection on face -->
  <ellipse cx="90" cy="70" rx="15" ry="20" fill="white" opacity="0.1"/>
</svg>